<?xml version="1.0" standalone="no"?>
<!DOCTYPE svg PUBLIC "-//W3C//DTD SVG 20010904//EN"
 "http://www.w3.org/TR/2001/REC-SVG-20010904/DTD/svg10.dtd">
<svg version="1.0" xmlns="http://www.w3.org/2000/svg"
 width="1024.000000pt" height="1024.000000pt" viewBox="0 0 1024.000000 1024.000000"
 preserveAspectRatio="xMidYMid meet">
<metadata>
Created by potrace 1.14, written by Peter Selinger 2001-2017
</metadata>
<g transform="translate(0.000000,1024.000000) scale(0.100000,-0.100000)"
fill="#000000" stroke="none">
<path d="M6731 8432 c-1 -37 19 -91 49 -129 20 -25 20 -25 20 -3 0 12 -13 46
-29 75 -16 29 -31 61 -34 71 -3 11 -5 5 -6 -14z"/>
<path d="M6850 8156 c-22 -49 -15 -91 24 -134 21 -24 86 -62 106 -62 24 0 106
42 118 60 10 16 6 15 -25 -5 -44 -30 -96 -32 -140 -5 -52 31 -66 61 -61 130 2
33 3 60 1 60 -2 0 -13 -20 -23 -44z"/>
<path d="M6525 8141 c-11 -19 28 -75 65 -93 45 -23 190 -26 190 -4 0 17 -31
26 -93 26 -55 0 -79 10 -123 52 -21 19 -34 26 -39 19z"/>
<path d="M7273 8020 c-36 -15 -27 -20 30 -20 31 0 61 6 73 15 17 13 15 14 -31
14 -27 0 -60 -4 -72 -9z"/>
<path d="M4919 7946 c-40 -29 -59 -50 -63 -71 -8 -37 -43 -75 -70 -75 -21 -1
-21 -1 0 -13 l22 -12 -26 -53 c-16 -34 -35 -58 -51 -65 -14 -7 -44 -29 -66
-50 -22 -21 -50 -40 -63 -44 -22 -5 -22 -7 -7 -29 21 -32 8 -30 -34 5 -31 25
-38 27 -74 19 -22 -5 -52 -17 -66 -27 -49 -34 -55 -32 -67 23 l-12 51 -1 -52
c-1 -51 -11 -66 -28 -40 -23 36 -39 37 -72 8 -20 -18 -28 -32 -22 -36 6 -3 9
-11 6 -16 -9 -13 45 -31 73 -24 29 7 294 54 342 61 19 2 59 9 88 15 49 10 54
14 76 57 49 98 177 393 174 401 -2 4 -28 -11 -59 -33z"/>
<path d="M5093 7952 c15 -34 87 -172 141 -272 23 -41 47 -87 55 -102 15 -30
23 -32 166 -49 146 -16 162 -18 255 -25 l85 -7 -18 21 c-10 11 -30 23 -45 27
-14 3 -31 14 -38 23 -11 15 -16 14 -48 -17 -37 -36 -51 -33 -17 3 l20 21 -62
3 c-69 3 -77 8 -93 60 -11 35 -12 35 -14 10 -1 -16 -3 -33 -4 -40 -2 -18 -22
-20 -38 -5 -7 8 -30 19 -51 26 -33 11 -97 73 -97 94 0 4 -9 18 -21 30 -11 12
-34 49 -51 82 -34 67 -70 110 -110 131 l-27 14 12 -28z"/>
<path d="M2647 7902 c61 -145 -119 -268 -234 -160 l-22 20 6 -21 c3 -12 19
-32 35 -46 25 -21 40 -25 93 -25 42 0 68 5 78 15 8 8 17 12 20 9 11 -11 65 77
71 116 5 33 2 50 -15 80 -30 53 -53 62 -32 12z"/>
<path d="M4469 7868 c-8 -7 -21 -22 -29 -33 -8 -11 0 -7 18 9 18 17 32 31 32
33 0 6 -6 3 -21 -9z"/>
<path d="M7016 7860 c8 -36 43 -101 66 -127 30 -32 81 -47 109 -33 20 11 18
14 -36 41 -63 32 -113 75 -132 117 -12 26 -12 26 -7 2z"/>
<path d="M4320 7812 c0 -58 -69 -91 -118 -56 -12 8 -22 11 -22 6 0 -16 48 -42
76 -42 38 0 74 42 74 86 0 18 -2 34 -5 34 -3 0 -5 -13 -5 -28z"/>
<path d="M6700 7786 c0 -29 52 -76 84 -76 23 0 69 28 51 31 -5 1 -14 3 -20 4
-5 2 -15 3 -21 4 -6 0 -26 15 -44 31 -41 36 -50 37 -50 6z"/>
<path d="M6041 7774 c-1 -31 -27 -64 -49 -64 -7 0 -12 -4 -12 -10 0 -17 28
-11 49 11 24 26 30 49 20 74 -6 16 -8 14 -8 -11z"/>
<path d="M7856 7743 c-6 -14 -5 -15 5 -6 7 7 10 15 7 18 -3 3 -9 -2 -12 -12z"/>
<path d="M7710 7729 c0 -11 -4 -17 -10 -14 -5 3 -10 -1 -10 -10 0 -8 -6 -18
-13 -21 -7 -2 -24 -22 -37 -44 -14 -22 -28 -40 -32 -40 -5 0 -8 -7 -8 -15 0
-8 -7 -15 -15 -15 -8 0 -15 -7 -15 -16 0 -10 -6 -14 -15 -10 -20 7 -20 5 19
-67 22 -41 33 -72 29 -86 -3 -12 -1 -21 6 -21 6 0 11 -11 11 -24 0 -19 28 -59
31 -45 5 27 13 46 45 114 34 73 38 89 42 182 4 106 -1 153 -18 153 -6 0 -10
-9 -10 -21z"/>
<path d="M5938 7703 c7 -3 16 -2 19 1 4 3 -2 6 -13 5 -11 0 -14 -3 -6 -6z"/>
<path d="M8020 7695 c-7 -8 -19 -15 -27 -15 -7 0 -16 -7 -19 -15 -4 -8 -11
-15 -17 -15 -20 0 -66 -52 -60 -68 5 -11 3 -13 -6 -7 -11 6 -11 3 -1 -16 18
-34 24 -38 17 -11 -3 12 -1 22 4 22 5 0 9 -6 9 -14 0 -10 17 -15 63 -18 71 -4
80 -2 46 11 -13 5 -18 10 -11 10 14 1 17 21 3 21 -6 0 -22 11 -37 25 -14 13
-31 22 -37 18 -6 -4 -7 -1 -2 6 5 9 10 10 18 2 17 -17 31 -13 17 4 -9 11 -9
15 -1 15 7 0 9 5 5 12 -4 6 -3 8 3 5 9 -6 53 26 53 38 0 9 -7 5 -20 -10z m-95
-94 c-3 -6 -11 -11 -17 -11 -6 0 -6 6 2 15 14 17 26 13 15 -4z"/>
<path d="M4410 7650 c0 -5 6 -10 14 -10 8 0 18 5 21 10 3 6 -3 10 -14 10 -12
0 -21 -4 -21 -10z"/>
<path d="M7993 7628 c2 -12 9 -24 15 -26 13 -4 15 8 6 32 -9 24 -24 19 -21 -6z"/>
<path d="M4241 7598 c-22 -23 -28 -35 -20 -42 12 -13 59 35 59 60 0 20 -4 18
-39 -18z"/>
<path d="M5980 7580 c-7 -10 -17 -17 -22 -14 -4 3 -8 0 -8 -5 0 -6 4 -11 8
-11 12 0 46 39 41 45 -3 2 -11 -4 -19 -15z"/>
<path d="M7765 7560 c-3 -5 -1 -10 4 -10 6 0 11 5 11 10 0 6 -2 10 -4 10 -3 0
-8 -4 -11 -10z"/>
<path d="M7065 7539 c1 -9 -2 -25 -7 -35 -9 -18 -8 -18 5 -1 15 18 32 24 22 7
-3 -6 4 -10 17 -10 22 1 22 1 -4 17 -15 10 -29 22 -31 28 -2 5 -3 3 -2 -6z"/>
<path d="M7869 7523 c-13 -16 -12 -17 4 -4 9 7 17 15 17 17 0 8 -8 3 -21 -13z"/>
<path d="M6020 7490 c0 -6 -5 -8 -11 -4 -7 4 -10 2 -8 -5 3 -7 9 -13 14 -13 6
0 15 -4 21 -9 16 -13 13 14 -3 29 -8 9 -13 9 -13 2z"/>
<path d="M7070 7479 c0 -5 5 -7 10 -4 6 3 10 8 10 11 0 2 -4 4 -10 4 -5 0 -10
-5 -10 -11z"/>
<path d="M6939 7463 c-1 -5 -1 -11 -1 -14 1 -3 2 -28 3 -55 3 -48 4 -49 57
-76 l53 -27 -3 27 c-9 63 -102 188 -109 145z"/>
<path d="M6086 7445 c-10 -26 -7 -67 4 -60 6 4 8 11 5 16 -3 5 1 6 9 3 11 -4
16 0 16 15 0 12 0 24 1 29 1 15 -29 12 -35 -3z"/>
<path d="M6550 7426 c0 -2 7 -7 16 -10 8 -3 12 -2 9 4 -6 10 -25 14 -25 6z"/>
<path d="M2540 7405 c-7 -9 -11 -17 -9 -20 3 -2 10 5 17 15 14 24 10 26 -8 5z"/>
<path d="M3824 7393 c-4 -16 -10 -33 -15 -38 -13 -17 4 -33 26 -24 13 5 15 8
5 9 -9 0 -4 7 13 16 29 16 37 27 11 17 -10 -4 -15 -1 -14 8 7 45 -16 55 -26
12z"/>
<path d="M6614 7385 c-8 -42 2 -57 20 -33 7 10 15 16 17 13 3 -2 5 4 5 15 0
10 -4 16 -8 14 -4 -3 -8 2 -8 10 0 30 -19 16 -26 -19z"/>
<path d="M5653 7225 c-169 -178 -169 -178 -149 -260 6 -24 5 -27 -11 -20 -40
17 -149 45 -176 45 -47 0 -26 -22 39 -40 33 -10 81 -27 107 -38 l47 -21 0
-138 0 -139 35 -34 35 -34 0 190 c0 104 4 195 8 202 7 9 51 12 188 10 l179 -3
5 -185 5 -185 85 138 c47 76 99 159 115 185 l30 47 204 3 c125 1 208 -1 215
-8 8 -6 16 -6 22 0 7 7 84 9 203 8 l192 -3 38 -85 c21 -47 48 -107 61 -135 13
-27 36 -79 52 -115 l30 -65 49 115 c27 63 67 153 88 200 l38 85 197 3 c173 2
197 0 203 -14 3 -10 -56 -138 -156 -335 -135 -265 -161 -323 -150 -335 8 -10
15 -12 23 -4 5 5 20 10 33 10 27 0 51 35 134 195 50 97 107 255 92 255 -3 0 0
7 7 15 7 8 10 20 7 27 -2 7 -1 23 4 35 11 30 58 37 154 24 43 -6 80 -9 83 -6
9 8 -58 102 -73 102 -8 0 -12 -4 -9 -9 7 -11 0 -10 -33 4 -33 15 -53 33 -53
47 0 5 -5 13 -12 17 -7 5 -8 3 -3 -7 5 -8 -1 -6 -13 4 -11 10 -38 21 -60 24
-29 4 -39 9 -35 19 4 10 -3 14 -21 14 -14 0 -26 4 -26 9 0 4 -12 6 -27 3 l-26
-5 6 89 c4 49 9 105 11 124 5 33 4 34 -9 16 -9 -11 -12 -29 -9 -39 3 -11 2
-17 -3 -14 -5 3 -23 -26 -39 -65 -26 -64 -33 -72 -59 -75 -74 -8 -175 -39
-175 -53 0 -4 -13 -7 -29 -8 -17 0 -40 -6 -52 -13 -12 -6 -50 -11 -83 -10 -76
1 -93 4 -131 21 -30 13 -317 22 -655 21 -146 -1 -185 -6 -175 -21 3 -5 -8 -5
-24 0 -16 4 -32 5 -36 2 -8 -9 -174 -18 -168 -9 2 4 0 7 -6 7 -5 0 -13 -4 -16
-10 -3 -5 -12 -10 -18 -10 -7 0 -6 4 3 11 11 7 4 8 -24 3 -24 -4 -41 -3 -45 5
-4 6 -43 16 -86 21 -63 8 -85 15 -104 35 -23 22 -24 27 -13 63 7 21 23 51 36
65 14 15 33 40 42 57 10 16 22 30 27 30 5 0 6 7 3 16 -3 8 -2 13 2 10 5 -3 13
13 19 35 6 22 7 42 3 44 -5 3 -80 -69 -167 -160z m1391 -224 c4 -5 -3 -7 -14
-4 -23 6 -26 13 -6 13 8 0 17 -4 20 -9z"/>
<path d="M7587 7359 c7 -7 15 -10 18 -7 3 3 -2 9 -12 12 -14 6 -15 5 -6 -5z"/>
<path d="M4267 7334 c7 -3 10 -11 8 -17 -8 -22 29 -85 80 -139 51 -53 98 -121
102 -146 1 -8 -3 -25 -9 -38 -10 -21 -13 -22 -32 -9 -13 10 -48 15 -101 16
-58 1 -72 3 -50 9 26 7 22 8 -22 9 -30 0 -53 -3 -53 -9 0 -6 -30 -10 -70 -10
-81 0 -140 -20 -140 -47 0 -14 -2 -15 -9 -4 -7 10 -9 11 -13 1 -3 -9 -23 -13
-59 -13 -69 0 -83 4 -115 34 -25 24 -28 24 -221 24 -193 0 -195 0 -214 -24
-13 -16 -19 -39 -19 -72 0 -31 -4 -48 -11 -46 -6 1 -14 -4 -16 -10 -3 -7 2
-13 11 -13 9 0 16 -4 16 -10 0 -5 -4 -10 -9 -10 -5 0 -14 -20 -20 -45 -6 -25
-15 -44 -19 -41 -4 2 -7 -8 -8 -22 -2 -57 -44 -292 -59 -330 -16 -38 -16 -43
1 -71 16 -28 24 -31 65 -31 l46 0 6 -117 c2 -65 4 -118 3 -118 0 0 -90 1 -198
3 l-198 3 0 115 0 114 34 0 c39 0 46 14 35 68 -10 48 11 36 39 -23 18 -37 26
-45 33 -34 7 12 9 12 10 -1 0 -10 3 -8 8 5 5 11 5 22 2 25 -27 21 -52 137 -32
149 10 7 6 32 -22 141 -6 25 -12 50 -12 55 -2 39 -18 73 -31 68 -11 -4 -12 0
-6 18 7 18 2 41 -18 89 -15 36 -31 79 -34 96 -9 43 -36 65 -86 71 l-42 6 28
12 c33 14 118 81 92 72 -10 -4 -18 -2 -18 4 0 6 -5 7 -11 4 -6 -4 -6 1 2 12
10 17 8 24 -11 46 -13 15 -29 27 -35 27 -6 0 -22 12 -34 26 l-23 26 -14 -21
c-8 -11 -22 -38 -32 -58 l-17 -38 -5 55 c-7 66 -17 49 -23 -40 -5 -76 -24
-125 -42 -110 -7 6 -27 7 -44 4 -24 -5 -29 -9 -19 -16 8 -6 -3 -8 -34 -6 -25
2 -44 0 -41 -4 2 -5 -3 -8 -12 -8 -8 0 -18 -7 -21 -15 -4 -8 -11 -12 -17 -8
-5 3 -7 2 -4 -4 4 -6 -18 -37 -48 -69 -30 -32 -57 -67 -61 -76 -3 -10 -11 -18
-17 -19 -7 0 11 -6 38 -13 l50 -11 -5 -55 c-9 -109 -3 -273 11 -264 3 1 12
-12 19 -31 20 -52 50 -48 51 8 1 23 4 148 8 277 l6 235 174 3 c96 1 178 -1
183 -6 5 -5 8 -218 8 -475 l0 -467 204 0 c161 0 206 -3 215 -14 8 -9 11 -63 9
-167 l-3 -154 -389 -3 c-215 -1 -393 1 -397 5 -5 5 -11 116 -15 248 -4 157
-11 242 -18 247 -16 10 -24 -67 -26 -257 -2 -121 -4 -149 -11 -115 -4 25 -15
81 -24 125 -8 44 -20 108 -27 143 -6 34 -14 62 -17 62 -4 0 -40 -34 -81 -75
-41 -41 -79 -75 -84 -75 -5 0 29 39 75 86 46 47 85 86 86 88 7 7 -18 121 -27
124 -6 2 -7 8 -4 14 3 5 0 46 -7 91 -13 80 -14 83 -73 145 -70 73 -67 82 6 15
28 -27 49 -41 46 -33 -3 8 -13 60 -23 115 -10 55 -21 106 -24 113 -5 8 -41
-24 -105 -94 l-99 -105 30 -32 c45 -48 155 -187 148 -187 -3 0 -59 27 -125 60
-66 33 -122 60 -124 60 -2 0 -37 -52 -77 -115 -40 -63 -74 -113 -76 -112 -2 2
4 63 13 136 9 72 15 133 13 135 -10 10 -269 74 -269 66 0 -8 20 -58 44 -115
63 -142 175 -415 171 -415 -1 0 -33 42 -71 93 -37 50 -138 187 -223 302 -86
116 -172 233 -191 262 -25 37 -37 47 -43 38 -4 -8 -31 -92 -61 -187 -29 -95
-56 -182 -60 -194 -6 -19 8 -28 146 -90 84 -38 173 -79 198 -91 l45 -22 -216
0 -217 -1 -7 -72 c-4 -40 -15 -138 -24 -217 l-16 -143 -68 206 c-38 113 -71
206 -74 206 -12 0 -408 -82 -411 -85 -4 -4 44 -48 178 -165 52 -46 115 -102
140 -124 25 -23 82 -73 125 -112 170 -152 172 -151 -33 -17 -79 51 -145 93
-148 93 -3 0 -31 18 -61 40 -31 22 -58 39 -60 37 -2 -2 1 -57 7 -123 5 -65 10
-129 10 -140 0 -21 6 -22 141 -29 77 -4 137 -11 132 -15 -4 -4 -62 -28 -129
-54 l-121 -47 22 -82 c13 -45 30 -106 39 -136 9 -30 15 -56 13 -57 -2 -2 -138
156 -174 202 -9 13 -29 3 -133 -64 l-123 -79 144 -56 c79 -31 178 -69 219 -85
l75 -28 3 -54 4 -55 18 72 c75 289 292 538 538 616 164 52 337 58 489 18 54
-14 83 -17 110 -10 21 5 125 9 231 9 186 0 270 -9 301 -34 12 -9 13 -2 7 49
-5 47 -4 57 6 47 9 -9 108 -12 412 -12 221 0 406 4 412 8 26 17 34 56 34 164
l1 113 26 -50 c14 -27 53 -77 87 -110 103 -101 222 -145 402 -145 332 0 523
170 559 500 l7 64 19 -74 c26 -102 78 -204 140 -273 131 -147 307 -216 547
-217 127 0 292 28 355 60 28 15 37 16 37 6 0 -7 8 -20 18 -29 16 -15 45 -17
203 -17 144 0 190 3 205 14 17 13 20 31 24 157 l5 143 80 -138 c44 -75 88
-146 98 -157 17 -18 33 -19 242 -19 212 0 226 1 245 20 23 23 25 51 9 83 -7
12 -59 94 -117 182 -58 88 -145 222 -194 298 l-90 138 28 37 c15 20 29 39 30
41 3 4 35 -15 165 -96 l86 -53 164 0 164 -1 33 -64 32 -64 0 -234 c0 -222 1
-236 21 -261 l20 -26 187 0 c103 0 192 4 198 8 26 17 34 56 34 163 0 105 -1
111 -17 98 -17 -13 -17 -13 0 7 14 17 17 41 17 135 0 104 3 118 26 158 22 39
23 46 10 59 -13 13 -18 8 -43 -39 l-28 -54 -5 -245 -5 -245 -174 -3 c-119 -2
-178 1 -187 9 -11 9 -14 59 -14 247 l0 235 -49 91 c-26 50 -115 222 -196 381
-82 160 -149 291 -150 293 -1 1 -90 -129 -198 -289 l-196 -291 19 -27 c87
-121 400 -618 398 -630 -3 -14 -32 -16 -219 -19 l-216 -2 -126 212 -127 213
-2 -210 -3 -210 -179 -3 c-137 -2 -181 1 -188 10 -4 7 -8 202 -8 434 l0 420
-35 34 c-33 32 -35 32 -35 12 0 -35 -23 -36 -86 -4 -104 52 -158 65 -249 60
-131 -7 -210 -58 -261 -172 -24 -53 -28 -73 -28 -156 0 -81 3 -103 25 -150 34
-72 89 -125 158 -151 79 -30 223 -23 335 15 44 15 85 25 93 22 11 -5 13 -39
11 -173 l-3 -168 -80 -23 c-122 -36 -338 -42 -460 -13 -109 26 -172 55 -245
110 -152 115 -230 290 -230 517 0 151 20 247 74 358 66 137 159 221 309 282
43 17 78 36 77 40 0 5 -20 8 -43 7 -59 -3 -171 -62 -245 -128 -34 -31 -62 -51
-62 -43 0 7 7 60 16 118 l15 105 -58 55 c-148 140 -288 260 -302 259 -9 0 -11
-3 -4 -5z m-512 -406 c3 -13 6 -210 8 -438 2 -386 3 -417 21 -450 27 -50 44
-59 107 -60 60 0 89 18 112 68 8 19 13 160 17 462 l5 435 179 3 c128 2 182 -1
193 -10 22 -18 14 -880 -9 -953 -28 -91 -55 -140 -106 -196 -100 -109 -229
-154 -422 -147 -270 11 -429 138 -475 381 -20 103 -22 896 -3 915 8 8 65 12
190 12 176 0 178 0 183 -22z m765 -255 c0 -5 -9 -31 -19 -59 -11 -28 -26 -82
-35 -120 l-14 -69 -1 121 c-1 66 2 124 6 127 9 9 63 9 63 0z m775 -119 c23
-17 51 -29 74 -30 20 -1 49 -7 64 -13 40 -15 67 -14 89 6 17 16 18 8 18 -220
l0 -235 -28 10 c-24 9 -42 6 -108 -17 -104 -37 -252 -46 -320 -20 -62 23 -100
58 -131 119 -23 44 -27 63 -27 146 0 84 3 101 26 145 53 101 132 148 239 142
54 -3 74 -10 104 -33z m-1317 -252 c-4 -273 -7 -282 -88 -282 -79 0 -84 14
-88 245 l-3 191 83 37 c46 20 87 36 91 37 5 0 7 -103 5 -228z"/>
<path d="M2612 7259 c4 -11 -2 -21 -18 -29 -13 -8 -24 -17 -24 -22 0 -5 -4 -7
-9 -4 -5 3 -11 -1 -14 -8 -4 -10 4 -18 21 -24 l27 -10 -25 -10 c-39 -16 1 -27
83 -24 31 2 37 5 37 25 0 31 -32 88 -60 106 -22 15 -23 15 -18 0z"/>
<path d="M7104 7170 c8 -19 19 -35 25 -36 7 -2 7 0 1 3 -5 2 -10 10 -10 17 0
7 -7 21 -15 32 -13 17 -13 15 -1 -16z"/>
<path d="M7787 7009 c7 -7 15 -10 18 -7 3 3 -2 9 -12 12 -14 6 -15 5 -6 -5z"/>
<path d="M1811 6890 c-11 -55 -11 -231 0 -225 3 2 3 -9 1 -26 -5 -36 4 -36 47
0 l34 28 -9 104 c-8 90 -11 104 -26 103 -10 -1 -16 1 -14 5 2 3 -2 19 -9 36
l-13 29 -11 -54z"/>
<path d="M1520 6900 c-12 -8 -10 -10 9 -8 20 3 27 -3 34 -29 6 -18 16 -33 23
-33 7 0 16 -4 19 -10 3 -5 0 -7 -9 -4 -23 9 -38 -4 -27 -24 8 -14 4 -19 -22
-28 -29 -10 -26 -11 35 -10 58 1 68 4 68 19 0 9 -4 17 -10 17 -5 0 -10 -5 -10
-11 0 -5 -4 -8 -9 -5 -10 7 -3 44 10 52 5 3 6 -2 3 -10 -3 -9 -2 -16 4 -16 6
0 9 6 8 14 -3 19 -26 46 -40 46 -6 0 -22 12 -35 25 -26 28 -30 29 -51 15z
m105 -60 c3 -6 -1 -7 -9 -4 -18 7 -21 14 -7 14 6 0 13 -4 16 -10z"/>
<path d="M1943 6788 c39 -84 62 -91 59 -20 -1 14 3 20 10 16 7 -4 8 -3 4 5 -4
6 -11 9 -16 6 -5 -3 -16 2 -24 11 -9 9 -16 11 -16 4 0 -6 -11 2 -25 17 -23 26
-22 23 8 -39z m45 -23 c-3 -3 -9 2 -12 12 -6 14 -5 15 5 6 7 -7 10 -15 7 -18z"/>
<path d="M1745 6821 c-3 -5 -2 -12 3 -15 5 -3 9 1 9 9 0 17 -3 19 -12 6z"/>
<path d="M1660 6752 c0 -5 7 -13 16 -16 10 -4 14 -1 12 6 -5 15 -28 23 -28 10z"/>
<path d="M7887 6542 c-21 -110 -37 -205 -36 -209 1 -4 -1 -15 -4 -23 -4 -8
-18 -76 -31 -150 -14 -74 -28 -148 -31 -165 -5 -25 -1 -35 24 -59 17 -17 31
-34 31 -40 0 -5 -13 2 -28 17 -15 15 -31 27 -34 27 -3 0 -8 -15 -11 -32 -10
-66 -58 -323 -62 -335 -2 -7 10 -20 27 -29 17 -9 49 -29 71 -45 22 -16 46 -29
53 -29 7 0 39 16 71 35 32 19 103 47 158 62 87 24 117 27 235 27 102 -1 153
-6 209 -21 54 -15 83 -18 110 -12 62 14 390 11 451 -5 l54 -14 36 31 c20 18
77 68 127 112 49 44 154 136 232 205 79 68 139 125 135 127 -41 12 -407 82
-413 79 -4 -3 -36 -93 -71 -200 -35 -108 -67 -190 -71 -183 -3 6 -9 46 -13 87
-10 116 -27 272 -32 298 -4 22 -5 22 -216 22 -121 0 -208 4 -202 9 5 5 88 43
184 86 96 43 179 81 184 85 5 5 -1 41 -13 82 -42 140 -103 328 -106 328 -2 0
-45 -55 -95 -122 -50 -68 -118 -159 -151 -203 -33 -44 -108 -145 -166 -225
-58 -80 -109 -149 -114 -154 -5 -5 12 40 37 100 25 60 56 134 69 164 12 30 43
104 69 164 26 60 45 110 44 111 -2 2 -65 -13 -141 -33 l-137 -36 6 -51 c4 -27
12 -88 19 -135 7 -47 11 -87 9 -89 -3 -3 -141 205 -147 223 -2 5 -59 -18 -128
-51 -68 -33 -125 -59 -127 -57 -2 1 35 49 82 106 47 56 86 105 86 108 0 3 -44
53 -98 110 l-98 104 -37 -202z m973 -706 c0 -3 -4 -8 -10 -11 -5 -3 -10 -1
-10 4 0 6 5 11 10 11 6 0 10 -2 10 -4z"/>
<path d="M9425 5699 c-49 -33 -128 -83 -175 -111 -104 -63 -98 -58 -78 -69 24
-13 61 -77 75 -129 8 -28 12 -125 13 -257 0 -117 2 -213 4 -213 3 0 112 41
243 91 131 49 257 97 281 106 23 9 45 19 47 24 3 4 -39 35 -93 70 -53 34 -106
68 -118 76 -19 12 -26 7 -109 -92 -48 -58 -90 -105 -93 -105 -2 0 -2 8 1 18
15 53 67 243 67 246 0 2 -59 28 -132 57 l-131 54 141 9 c118 7 142 11 146 25
9 33 18 261 10 261 -5 -1 -49 -28 -99 -61z"/>
<path d="M1491 5355 c-212 -60 -370 -231 -441 -480 -48 -166 -48 -407 -1 -585
86 -326 322 -519 636 -520 154 0 254 40 350 141 l55 58 0 -85 0 -84 175 0 175
0 2 273 3 272 40 1 c94 1 85 -15 85 154 l0 150 -370 0 -370 0 0 -145 0 -145
90 0 90 0 -15 -37 c-20 -49 -87 -110 -139 -125 -65 -20 -176 -14 -229 11 -63
30 -129 105 -157 177 -21 51 -24 77 -24 194 -1 128 1 138 27 196 69 148 222
223 371 180 60 -18 123 -66 153 -117 l17 -29 183 0 183 0 0 265 0 265 -185 0
-185 0 0 -56 0 -56 -48 44 c-74 66 -150 90 -297 94 -86 3 -135 0 -174 -11z"/>
<path d="M8162 5355 c-143 -40 -267 -139 -322 -257 -87 -186 -51 -423 82 -543
88 -79 203 -124 418 -165 259 -48 320 -80 320 -165 0 -40 -5 -52 -31 -76 -40
-38 -98 -52 -184 -47 -113 8 -199 62 -243 155 l-16 33 -173 0 -173 0 0 -245 0
-245 170 0 170 0 0 61 0 61 53 -45 c96 -81 171 -107 317 -107 305 0 501 178
517 470 10 177 -36 310 -141 407 -87 81 -201 126 -396 158 -214 34 -266 49
-307 88 -32 29 -31 86 2 126 85 101 302 70 418 -59 l45 -50 171 0 171 0 0 215
0 215 -175 0 -175 0 0 -56 0 -56 -41 37 c-23 20 -71 51 -107 68 -60 28 -75 31
-191 34 -90 2 -141 -1 -179 -12z"/>
<path d="M3022 4853 c-83 -269 -168 -543 -189 -610 l-38 -123 -53 0 -53 0 3
-157 3 -158 335 0 335 0 3 158 3 157 -72 0 c-53 0 -70 3 -66 13 2 7 15 49 28
95 l24 82 200 -2 200 -3 26 -90 25 -90 -68 -3 -68 -3 0 -160 0 -159 338 2 337
3 3 158 3 157 -54 0 -53 0 -93 298 c-51 163 -117 374 -146 467 -29 94 -73 233
-97 310 l-44 140 -310 3 -310 2 -152 -487z m531 -60 l65 -223 -134 0 c-102 0
-132 3 -129 13 2 6 22 75 45 152 59 206 83 285 86 282 1 -1 31 -102 67 -224z"/>
<path d="M4410 5185 l0 -155 55 0 55 0 0 -455 0 -455 -55 0 -55 0 0 -160 0
-160 320 0 320 0 0 160 0 160 -70 0 -70 0 0 372 c0 204 3 369 6 365 4 -3 68
-169 143 -369 l136 -363 96 -3 95 -3 138 371 c76 203 140 370 142 370 2 0 4
-166 4 -370 l0 -370 -70 0 -70 0 0 -160 0 -160 320 0 320 0 0 160 0 160 -55 0
-55 0 0 455 0 455 55 0 55 0 0 155 0 155 -321 -2 -322 -3 -47 -125 c-25 -69
-78 -209 -116 -312 -38 -104 -71 -188 -74 -188 -3 0 -57 142 -120 315 l-115
315 -322 0 -323 0 0 -155z"/>
<path d="M6330 5185 l0 -155 65 0 65 0 0 -455 0 -455 -65 0 -65 0 0 -160 0
-160 650 0 650 0 0 305 0 305 -134 0 -135 0 -10 -52 c-6 -29 -19 -93 -30 -143
l-18 -90 -211 -3 -212 -2 0 140 0 140 140 0 140 0 0 170 c0 155 -2 170 -17
171 -10 1 -65 3 -123 4 -58 1 -113 3 -122 4 -16 1 -18 15 -18 141 l0 140 209
0 209 0 17 -77 c9 -43 23 -103 29 -133 l13 -55 136 -3 137 -3 0 291 0 290
-650 0 -650 0 0 -155z"/>
<path d="M9250 4858 c0 -25 -30 -80 -63 -115 -18 -21 -19 -24 -5 -40 9 -10 30
-45 46 -78 l31 -60 1 158 c0 86 -2 157 -5 157 -3 0 -5 -10 -5 -22z"/>
<path d="M755 4612 c6 -4 12 -23 14 -42 4 -52 11 -50 11 3 0 38 -3 47 -17 47
-11 0 -14 -3 -8 -8z"/>
<path d="M782 4460 c0 -14 2 -19 5 -12 2 6 2 18 0 25 -3 6 -5 1 -5 -13z"/>
<path d="M9294 4426 c-3 -8 -4 -23 -2 -33 3 -11 6 -6 9 15 6 34 2 42 -7 18z"/>
<path d="M811 4123 l-1 -183 55 0 c37 0 57 5 62 14 6 12 11 10 20 -10 6 -13 7
-24 2 -24 -5 0 -9 -5 -9 -11 0 -5 4 -8 9 -4 5 3 27 -14 48 -37 21 -23 64 -68
96 -99 l58 -57 -29 -6 c-16 -4 -41 -2 -57 4 -56 21 -47 -7 28 -86 l75 -79 42
48 c43 48 54 54 80 37 12 -8 5 -19 -38 -63 l-52 -53 30 -29 c16 -16 30 -33 30
-39 0 -5 -15 4 -33 22 -18 18 -37 32 -43 32 -5 0 -58 -49 -118 -109 l-108
-108 48 -37 c61 -47 153 -91 235 -112 54 -14 136 -18 539 -21 l475 -4 30 -23
c16 -13 108 -92 203 -175 96 -83 190 -160 210 -170 57 -28 170 -60 252 -71 42
-5 430 -10 890 -10 448 -1 810 -4 804 -6 -9 -4 -8 -18 2 -52 11 -34 13 -73 8
-143 -5 -78 -3 -107 11 -153 33 -105 44 -80 80 189 8 61 17 121 20 135 5 23
-14 44 -171 185 l-176 160 114 21 c62 12 168 32 236 44 106 19 125 25 131 44
8 20 4 21 -58 29 -105 12 -237 36 -349 63 -56 14 -111 22 -122 19 -11 -4 -31
-21 -45 -39 l-25 -32 26 -119 c13 -65 23 -120 20 -122 -2 -2 -49 19 -105 46
-55 28 -109 51 -120 51 -10 0 -67 -27 -126 -60 -95 -53 -107 -57 -101 -37 3
12 11 71 17 131 l12 110 -39 34 c-82 74 -145 134 -142 136 2 1 57 12 123 24
133 25 153 35 115 60 -97 66 -142 105 -129 112 9 6 4 11 -17 15 -57 13 -64 17
-74 36 -9 15 -7 19 7 21 10 1 25 2 33 4 8 1 336 2 729 3 393 1 712 3 709 6 -3
3 -27 6 -54 7 l-48 1 25 19 c82 64 119 128 119 205 0 18 5 33 10 33 6 0 10
-10 10 -22 0 -57 30 -132 66 -170 21 -21 46 -40 56 -44 26 -8 22 -27 -4 -21
-13 2 -34 1 -48 -3 -14 -5 190 -8 452 -9 274 -1 479 -5 482 -10 12 -19 -8 -41
-48 -52 -22 -7 -36 -14 -29 -16 8 -3 3 -12 -13 -27 l-26 -22 23 -46 c25 -53
21 -51 174 -69 55 -6 102 -13 104 -15 3 -3 -36 -46 -85 -97 l-90 -92 23 -110
c12 -60 22 -115 20 -121 -1 -7 -48 10 -113 41 l-112 53 -48 -27 c-27 -15 -75
-41 -108 -59 -32 -18 -61 -30 -64 -27 -3 3 2 58 12 122 l17 118 -66 63 c-36
34 -72 62 -79 62 -8 0 -64 -16 -126 -35 -61 -19 -171 -47 -243 -62 -73 -14
-133 -28 -135 -29 -2 -1 1 -11 7 -22 8 -15 25 -21 73 -26 93 -10 403 -48 405
-50 3 -2 -98 -109 -217 -231 l-108 -110 37 -179 c21 -101 42 -181 49 -184 7
-2 12 2 12 10 1 7 2 35 4 62 2 27 -2 71 -9 98 -11 43 -10 51 5 71 10 13 17 38
16 64 l-1 42 855 5 c470 3 871 6 890 8 19 2 46 10 60 18 14 8 50 26 80 41 30
14 78 46 106 70 176 150 334 291 333 297 0 4 -29 33 -64 64 l-64 57 -30 -15
c-27 -13 -31 -21 -33 -57 l-1 -42 -6 44 c-5 38 -10 46 -36 54 -16 6 -33 15
-37 20 -3 6 -57 -39 -120 -99 -128 -123 -119 -106 16 33 71 73 88 95 78 105
-7 7 -12 20 -12 30 0 15 -9 18 -47 19 -36 0 -43 3 -28 9 11 5 32 9 48 9 22 1
27 6 29 26 0 14 1 29 2 35 1 5 -34 45 -76 89 -43 43 -78 82 -78 86 0 4 38 -29
85 -73 l85 -81 43 18 c41 18 42 19 48 77 l6 59 1 -57 c2 -55 3 -57 37 -68 43
-14 53 -9 130 69 88 90 89 74 2 -20 l-76 -81 19 -33 c14 -24 16 -35 7 -39 -7
-2 6 -5 28 -6 68 -2 89 -18 25 -19 -52 -1 -55 -3 -56 -27 -1 -14 -9 -31 -18
-37 -14 -10 -8 -20 44 -77 33 -36 64 -64 69 -63 5 1 181 3 392 3 211 1 413 6
449 11 153 24 278 85 370 180 54 55 110 147 110 180 0 25 -135 150 -154 143
-9 -3 -14 -10 -11 -14 3 -4 -9 -7 -25 -6 -17 0 -30 5 -31 11 -4 36 -17 -55
-19 -125 -2 -69 -4 -79 -10 -50 -5 19 -10 67 -11 105 -1 39 -6 73 -11 76 -5 3
24 32 64 64 40 32 85 73 100 90 24 29 31 31 77 28 l51 -4 0 44 c0 24 3 72 6
106 5 44 4 61 -5 61 -7 0 -9 -5 -5 -12 4 -7 3 -8 -4 -4 -8 5 -8 15 -2 32 14
35 13 36 -12 11 -13 -13 -38 -52 -57 -88 -61 -116 -173 -227 -285 -282 -147
-71 -366 -91 -526 -47 -47 12 -98 21 -115 19 -16 -2 -129 -4 -251 -4 -175 0
-224 3 -238 14 -14 12 -20 12 -43 0 -22 -12 -143 -14 -717 -14 -380 1 -713 1
-741 1 -27 0 -214 0 -415 -1 -408 0 -390 -3 -447 71 -25 33 -28 46 -31 135
l-4 99 -69 0 -69 0 0 -87 c0 -104 -20 -155 -77 -193 l-37 -25 -780 0 c-752 0
-782 1 -813 19 -31 19 -32 19 -60 0 -26 -18 -50 -19 -423 -19 -394 0 -395 0
-427 23 l-31 22 -39 -22 c-36 -22 -47 -23 -268 -23 -161 0 -236 4 -251 12 -17
10 -30 9 -70 -6 -27 -10 -91 -27 -143 -36 -80 -16 -105 -17 -180 -7 -212 28
-336 79 -474 195 -47 39 -157 175 -170 210 -3 9 -13 17 -22 17 -8 0 -15 5 -15
11 0 5 4 7 10 4 6 -3 7 1 4 9 -5 12 -11 13 -25 5 -13 -7 -19 -6 -19 1 0 6 -4
9 -9 6 -11 -7 -36 54 -66 164 l-24 85 0 -182z m1772 -530 c-7 -2 -19 -2 -25 0
-7 3 -2 5 12 5 14 0 19 -2 13 -5z m914 1 c-3 -3 -12 -4 -19 -1 -8 3 -5 6 6 6
11 1 17 -2 13 -5z m-1482 -76 c33 -35 152 -160 266 -278 113 -118 226 -237
250 -265 l44 -50 -50 44 c-27 25 -175 164 -329 310 -153 146 -284 269 -290
274 -8 5 -6 10 4 17 28 18 46 10 105 -52z m1154 -12 c36 -69 49 -76 143 -76
20 0 40 -5 44 -11 3 -6 -18 -36 -48 -67 l-55 -57 13 -50 c13 -49 18 -95 10
-95 -3 0 -34 14 -71 31 l-66 30 -66 -36 c-36 -20 -68 -34 -70 -31 -3 2 0 37 5
78 l10 73 -61 55 -61 55 80 15 79 15 35 68 c19 37 37 67 40 67 3 0 20 -29 39
-64z m3791 -1 l34 -64 55 -6 c31 -4 67 -10 80 -14 23 -7 23 -8 -27 -61 -57
-60 -57 -62 -41 -144 7 -31 9 -59 7 -62 -3 -3 -35 9 -71 27 l-65 32 -66 -36
c-37 -21 -69 -37 -72 -37 -5 0 2 92 11 135 3 15 -11 34 -55 70 -32 28 -59 53
-59 57 -1 3 32 12 73 18 40 7 78 15 82 19 5 3 22 34 38 69 16 34 32 62 36 62
3 0 21 -29 40 -65z m1780 50 c0 -3 -42 -45 -93 -94 -58 -57 -96 -102 -102
-122 -19 -64 -93 -92 -146 -56 -55 37 -52 104 5 131 46 22 67 20 108 -8 l36
-24 88 89 c79 80 104 100 104 84z m-7115 -70 c0 -45 3 -51 30 -65 16 -8 36
-27 45 -42 13 -25 13 -31 0 -55 -8 -16 -32 -36 -52 -46 -33 -16 -39 -17 -76
-2 -74 30 -79 109 -9 143 25 12 27 18 27 68 0 47 3 55 18 52 13 -3 17 -14 17
-53z m832 -90 c52 -59 9 -125 -82 -125 -66 0 -108 73 -71 122 33 45 116 46
153 3z m5948 -173 l-28 -27 23 33 c12 18 25 31 28 27 3 -3 -7 -18 -23 -33z"/>
<path d="M9291 4164 c0 -11 3 -14 6 -6 3 7 2 16 -1 19 -3 4 -6 -2 -5 -13z"/>
<path d="M9211 4044 c0 -11 3 -14 6 -6 3 7 2 16 -1 19 -3 4 -6 -2 -5 -13z"/>
<path d="M818 3919 c-10 -6 -9 -11 7 -22 14 -11 23 -12 37 -3 10 6 18 14 18
17 0 11 -48 17 -62 8z"/>
<path d="M9169 3773 c-1 -5 0 -18 1 -30 2 -35 -28 -86 -48 -78 -11 4 -9 -2 8
-22 56 -64 105 -113 112 -113 4 0 8 56 8 125 l0 125 -40 0 c-22 0 -40 -3 -41
-7z"/>
<path d="M832 3680 c-16 -13 -22 -29 -22 -57 1 -93 45 -217 102 -286 l23 -28
113 114 113 114 -77 72 c-56 52 -79 69 -85 59 -8 -13 -12 -14 -44 -17 -11 -1
-15 -14 -16 -53 -1 -59 -4 -55 -14 15 -5 37 -10 47 -25 47 -10 0 -25 9 -32 19
-13 18 -14 18 -36 1z"/>
<path d="M7310 2661 c0 -7 -5 -9 -10 -6 -6 3 -13 -1 -16 -9 -3 -9 -10 -14 -14
-11 -4 2 -15 -4 -25 -15 -10 -11 -22 -17 -28 -13 -6 3 -7 1 -3 -5 4 -7 3 -12
-3 -12 -5 0 -24 -12 -42 -27 -18 -16 -30 -22 -25 -15 11 18 -9 15 -25 -5 -12
-14 -12 -16 0 -8 9 5 12 4 8 -2 -3 -5 -20 -9 -36 -8 -17 1 -28 -1 -26 -5 3 -4
-20 -18 -50 -32 -30 -14 -52 -28 -48 -31 3 -4 -3 -7 -14 -7 -11 0 -23 -3 -27
-7 -4 -5 -11 -8 -14 -9 -4 0 -14 -4 -22 -7 -51 -22 -76 -30 -84 -28 -5 1 -3
-6 5 -15 8 -11 9 -15 2 -10 -13 7 -99 -18 -120 -36 -7 -6 -10 -15 -6 -21 3 -6
1 -7 -6 -3 -6 4 -18 3 -26 -4 -23 -19 -13 11 18 51 15 20 27 39 27 44 0 4 11
16 26 27 39 31 20 34 -26 4 -22 -14 -47 -26 -55 -26 -9 0 -30 -8 -48 -17 -18
-9 -36 -18 -42 -19 -52 -10 -127 -39 -132 -50 -3 -9 -13 -12 -23 -9 -10 3 -21
1 -25 -5 -3 -5 -15 -10 -26 -10 -11 0 -27 -7 -36 -15 -8 -9 -28 -19 -44 -22
-16 -3 -29 -10 -29 -15 0 -6 -6 -8 -14 -5 -7 3 -27 -3 -44 -13 -16 -10 -33
-16 -36 -13 -3 4 -6 1 -6 -5 0 -7 -8 -12 -18 -12 -10 0 -37 -9 -61 -21 -23
-11 -54 -22 -69 -24 -28 -4 -93 -26 -102 -35 -3 -3 -14 -7 -25 -8 -11 -2 -22
-7 -25 -11 -4 -6 -70 -27 -151 -49 -25 -7 -132 -92 -125 -99 5 -6 209 26 341
53 308 63 668 192 925 331 210 114 255 144 238 155 -9 7 -7 8 7 4 11 -3 33 5
51 17 17 12 55 39 85 59 80 54 115 85 107 94 -5 4 -8 2 -8 -5z m-40 -35 c0 -2
-8 -10 -17 -17 -16 -13 -17 -12 -4 4 13 16 21 21 21 13z"/>
<path d="M4938 2314 c-184 -105 -208 -131 -113 -124 16 1 59 11 95 23 36 11
68 20 73 19 4 -1 7 2 7 7 0 8 9 12 60 28 8 2 31 6 50 7 19 2 50 10 68 18 32
14 36 13 110 -23 76 -38 115 -46 140 -31 10 7 8 12 -5 24 -22 19 -288 148
-305 148 -7 0 -88 -43 -180 -96z"/>
</g>
</svg>
